<?xml version="1.0" encoding="utf-8"?>
<!-- Generator: Adobe Illustrator 27.5.0, SVG Export Plug-In . SVG Version: 6.00 Build 0)  -->
<svg version="1.1" id="Camada_1" xmlns="http://www.w3.org/2000/svg" xmlns:xlink="http://www.w3.org/1999/xlink" x="0px" y="0px"
	 viewBox="0 0 239.9 269.2" style="enable-background:new 0 0 239.9 269.2;" xml:space="preserve">
<style type="text/css">
	.st0{fill-rule:evenodd;clip-rule:evenodd;fill:#FFFFFF;}
	.st1{fill:#FFFFFF;}
</style>
<path class="st0" d="M110.1,88.9V3c9.9,0.2,19.8,1.6,29.5,4.3c-1,5.9,1.5,11.8,6.4,15.2l-28.4,68C115.1,89.6,112.7,89.1,110.1,88.9
	L110.1,88.9z"/>
<path class="st0" d="M102.6,88.9V3.1c-13.5,0.7-26.8,4-39,9.8l31.8,77.5C97.7,89.6,100.1,89.1,102.6,88.9L102.6,88.9z"/>
<path class="st0" d="M89.7,92.5L58,15.5c-12.1,6.2-23.1,14.6-32.3,24.8l56.9,56.9C84.8,95.4,87.1,93.8,89.7,92.5z"/>
<path class="st0" d="M21.8,44.9C13.4,54.8,7.1,66.3,3.1,78.7l70.8,29.6c1.2-2.4,2.8-4.7,4.5-6.8L21.8,44.9z"/>
<path class="st0" d="M71.4,114L1.6,84.8C0,97.3,0.3,109.9,2.6,122.2h67.2C70,119.4,70.6,116.7,71.4,114L71.4,114z"/>
<path class="st0" d="M69.8,128.4H4.3c4,10.3,9.1,20.1,15.3,29.2l51.8-21.2C70.6,133.8,70,131.1,69.8,128.4L69.8,128.4z"/>
<path class="st0" d="M78.5,148.6c-1.8-2.1-3.4-4.5-4.7-7l-50,20.5c7,6.9,14.6,13,22.9,18.2L78.5,148.6L78.5,148.6z"/>
<path class="st0" d="M118.2,194.4c-0.7-5.9,2-11.7,7-14.9l-7.9-19.6c-12,3.7-25,1.1-34.6-7l-30.6,30.6
	C72.5,194.3,95.6,198.1,118.2,194.4z"/>
<path class="st0" d="M122.7,157.8l7.9,19.7c6.1-1,12.3,1.8,15.6,7c3.4-1.6,6.8-3.3,10.1-5L129.9,153
	C127.6,154.9,125.2,156.5,122.7,157.8L122.7,157.8z"/>
<path class="st0" d="M217.7,136.1c-2.2-2.2-3.8-5-4.4-8.1h-70.7c-0.6,7.6-3.6,14.8-8.5,20.6l27.7,27.7
	C182,165.2,200.8,151.7,217.7,136.1L217.7,136.1z"/>
<path class="st0" d="M177.8,29.5c3.3,3.3,6.4,6.8,9.3,10.6l-57.3,57.3c-2.1-1.8-4.4-3.2-6.8-4.5l28.4-68c5.3,1.1,10.7-0.8,14.4-4.8
	C170,22.9,174.1,26.1,177.8,29.5z"/>
<g>
	<path class="st0" d="M133.1,183.4c-5.1,0-9.2,4.1-9.2,9.2s4.1,9.2,9.2,9.2s9.2-4.1,9.2-9.2S138.2,183.4,133.1,183.4z"/>
	<circle class="st1" cx="230.2" cy="123.8" r="9.2"/>
	<circle class="st1" cx="154.4" cy="9.9" r="9.2"/>
</g>
<polygon class="st0" points="39.2,268.6 39.2,244.3 49.6,244.3 63.7,261.1 63.7,244.5 71,244.5 71,268.6 59.9,268.6 46.3,252.7 
	46.3,268.6 "/>
<rect x="77.1" y="244.1" class="st1" width="6.8" height="24.5"/>
<path class="st0" d="M111.1,259.7h6.8v3.2c0,3.4-2.9,6-6.3,5.7H97.6c-3.5,0-6.4-2.6-6.8-6.1v-12.2c0-3.6,3.2-6.5,6.8-6.1h14.1
	c3.2,0,6,2.4,6.3,5.7v3.3h-6.8c0-1.6-1.4-2.9-3.1-2.8H101c-1.8-0.1-3.3,1.3-3.4,3.1v6.1c0.1,1.8,1.6,3.1,3.4,3.1h7.1
	C109.7,262.6,111.1,261.4,111.1,259.7L111.1,259.7z"/>
<path class="st0" d="M131.6,264.8l-1.7,3.9h-7.2l10-24.2h11.1l10.3,24.2h-7.8l-1.1-3.9H131.6z M142.5,258.9l-4.2-10.3l-4.2,10.3
	H142.5z"/>
<polygon class="st0" points="166.7,254.6 166.7,268.5 159.9,268.5 159.9,244 167.7,244 180,263.1 191.4,244 199.1,244 199.1,268.5 
	192.3,268.5 192.3,255.4 184.4,268.5 175.6,268.5 "/>
<path class="st0" d="M205.4,268.6v-24.8h21.4c3.3,0,5.8,2.8,6.4,6.1v6.7c0,3.3-3.1,6.4-6.4,6.4h-14.2v5.6H205.4z M212.6,256.4h10.9
	c4.2,0,4.2-6.1,0-6.1h-10.9V256.4z"/>
<path class="st0" d="M9.4,259.3V244H2.6v18.6c0,3.2,2.6,5.9,5.8,5.9h19.1c3.2,0,5.9-2.6,5.9-5.9v-18.4h-6.8v15.1
	c0,1.7-1.4,3.1-3.1,3.1h-11C10.8,262.4,9.4,261,9.4,259.3z"/>
<path class="st0" d="M208.6,80c-3.4-8.1-7.2-16.1-11.4-24c-2.1-3.7-4.3-7.3-6.6-10.9l-56.5,56.5c1.8,2.2,3.4,4.5,4.6,7
	C138.7,108.6,208.6,80,208.6,80z"/>
<path class="st0" d="M211,85.6c3.4,8.8,6.5,17.8,9.2,26.9c-3.4,2.2-5.9,5.7-6.8,9.7h-70.7c-0.2-2.7-0.7-5.4-1.6-8L211,85.6L211,85.6
	z"/>
</svg>
